<?xml version="1.0" encoding="utf-8"?>
<!-- Generator: Adobe Illustrator 22.0.1, SVG Export Plug-In . SVG Version: 6.00 Build 0)  -->
<svg version="1.1" id="Layer_1" xmlns="http://www.w3.org/2000/svg" xmlns:xlink="http://www.w3.org/1999/xlink" x="0px" y="0px"
	 viewBox="0 0 406.9 507.3" style="enable-background:new 0 0 406.9 507.3;" xml:space="preserve">
<style type="text/css">
	.st0{fill:#E87425;}
	.st1{fill:#DB2777;}
</style>
<g>
	<path class="st0" d="M66.4,157.6c0.4,29.6,11.6,54.6,30.3,76.5c5.2,6.1,12.1,10.8,18.2,16.1c3.1,2.7,6.6,5.6,3.5,10.3
		c-3.2,4.8-7.4,3.5-11.4,0.9c-15.2-10.2-27-23.7-36.3-39.4c-17.9-30-22-62.4-13.2-95.8C69.4,81.3,98,50.8,142.4,37
		C177,26.4,211,29.7,242.6,48c36.2,20.9,57.5,52.2,63,93.9c3.3,24.9,0.5,49.1-5.8,73.3c-5.5,21.3-12.4,42.5-12,64.8
		c0.1,7.8,1.6,15.5,2.7,23.2c0.6,4.4,0.8,8.3-4.7,9.5c-4.9,1.1-7.4-1.2-9-6.9c-7.4-26.4-1.2-51.7,5.1-77.2
		c5.4-21.9,12.5-43.7,12-66.6c-0.8-36.3-13.7-67.6-42-91.1c-14.8-12.3-32-20-51.4-24.1c-24.4-5.1-47.2-1.2-68.6,9.1
		c-30.7,14.8-51.7,39-60.6,72.5C68.9,138.1,68,147.9,66.4,157.6z"/>
	<path class="st0" d="M230.5,253.9c3,9,5.8,17.1,8.3,25.3c5.7,18.3,10.9,36.7,16.9,54.8c3.5,10.8,4,10.8,15,7.5
		c15-4.5,29.9-9.2,44.9-13.8c3.6-1.1,7.3-2.1,11-2.6c5.4-0.6,10,2.9,11.1,7.7c1.1,4.8-1.4,9.9-6.7,11.7c-10.1,3.5-20.4,6.8-30.6,10
		c-28.5,8.8-57.1,17.4-85.7,26.3c-23.3,7.2-46.5,14.6-69.8,21.8c-2.7,0.8-5.7,1.1-8.6,1.2c-5.4,0.2-8.9-2.5-10.2-7.6
		c-1.3-4.9,1.1-8.7,5.1-11c3.2-1.8,7-2.6,10.6-3.7c22.5-7,44.9-13.9,67.4-20.8c1.1-0.3,2.2-0.8,3.3-1.1c5.6-1.3,7.6-4.2,5.7-10.1
		c-4.4-13.5-8.2-27.2-12.4-40.8c-3.7-11.9-7.6-23.8-11.4-35.7c-0.4-1.4-0.9-2.9-0.7-4.2c0.2-1.2,1.2-2.9,2.2-3.3
		c1-0.3,3,0.4,3.6,1.3c1.5,2.1,2.7,4.5,3.4,7c7.3,23.6,14.5,47.1,21.7,70.7c0.5,1.7,0.7,3.7,1.8,4.8c1.5,1.6,3.8,3.5,5.7,3.4
		c3.4-0.1,3.7-3,3-5.9c-1.5-5.3-2.8-10.7-4.5-15.9c-10.4-33.2-20.9-66.4-31.2-99.7c-1-3.3-4.6-8.1,0.6-9.7c5.4-1.7,5.8,4.2,6.9,7.9
		c9.9,31.9,19.8,63.7,29.7,95.6c1.9,6.1,3.5,12.3,5.7,18.2c0.8,2,3.3,3.2,5,4.8c0.7-2.2,2.5-4.6,2-6.5c-2.7-10.1-5.9-20-9-30
		c-4.9-15.8-9.9-31.5-14.9-47.3C224.7,260.6,223.7,256.8,230.5,253.9z"/>
	<path class="st1" d="M237.8,154.5c-6.4,3.1-8.5,6.6-6,12.4c0.8,1.8,1.3,3.9,1.9,5.8c1.3,3.6,0.4,6.2-3.4,7.6
		c-13.1,4.8-23.8,13.1-33,23.5c-1.4,1.6-5.3,2.3-7.6,1.7c-12.6-3.4-25.1-4.5-37.8-1c-4.9,1.3-7.3-1.1-8-5.4
		c-1.4-9-7.2-12.3-15.6-13.3c-5-0.5-9.9-2.1-16.1-3.6c3-3.8,4.6-6.1,6.6-8.2c14.6-15.3,29.5-30.5,43.9-46c4.5-4.9,9-5.9,15.5-4.4
		c20.4,4.7,40.9,8.8,61.3,13.1c2.8,0.6,5.5,1.5,9.4,2.5c-1.6,2.5-2.5,4.7-4,6c-4.9,4.1-4.9,8.7-2.4,14c2.1,4.5,4.1,9,5.5,13.7
		c0.6,1.9-0.6,4.4-1,6.6c-1.4-1.6-3.4-2.9-4-4.7C241.1,168.5,239.7,162,237.8,154.5z"/>
	<path class="st0" d="M353.9,388.3c-0.1,5.6-3.9,8.3-8.4,9.9c-8.2,3-16.4,5.8-24.8,8.3c-21.9,6.7-43.9,13.3-65.8,20
		c-31.1,9.6-62.1,19.3-93.2,29c-2.8,0.9-5.7,1.4-8.5,1.8c-5.5,0.7-8.6-2.2-10.5-7.1c-1.9-5,0-8.5,3.8-11.3c1.6-1.2,3.6-1.9,5.5-2.5
		c28.6-8.8,57.2-17.3,85.7-26.2c26.9-8.3,53.7-17,80.5-25.4c7.5-2.3,14.9-4.8,22.6-6.5C348.4,376.6,354.1,381.5,353.9,388.3z"/>
	<path class="st0" d="M146.6,428.5c-8.3,0.1-11.7-2.2-12.6-7.8c-0.9-6,1.1-9.6,7.7-11.7c21-6.7,42.1-13.1,63.1-19.6
		c23.8-7.4,47.6-14.8,71.3-22.2c17.2-5.3,34.3-10.6,51.5-15.9c1.9-0.6,3.9-1.1,6-1.3c5.7-0.6,10.2,2.3,11.4,7.2
		c1.4,5.5-0.9,10.2-6.8,12.1c-17.9,5.8-36,11.3-53.9,17.1c-24,7.7-47.9,15.5-72,23.1c-19.9,6.3-39.9,12.2-59.8,18.2
		C150.2,428.3,147.8,428.3,146.6,428.5z"/>
	<path class="st0" d="M159.1,467.5c63-21.7,126.6-41.2,190.7-59.2c0.7,1.1,1.4,2.3,2,3.4c-3,3.6-5.6,7.7-9.1,10.7
		c-21.6,18.7-46.2,32-73.3,41c-21.1,7-42.8,11.4-64.8,12.8c-13.5,0.8-27.1-1.9-40.7-3.2c-1.7-0.2-3.3-1.9-4.9-2.9
		C159,469.2,159,468.3,159.1,467.5z"/>
</g>
</svg>
